<?xml version="1.0" encoding="UTF-8"?>
<svg viewBox="0 0 48 48" xmlns="http://www.w3.org/2000/svg">
 <defs>
  <radialGradient id="b" cx="29.288" cy="15.721" r="8.9021" fx="29.158" fy="15.756" gradientUnits="userSpaceOnUse">
   <stop stop-color="#fffcde" offset="0"/>
   <stop stop-color="#f6e76a" offset=".64486"/>
   <stop stop-color="#ffb738" offset="1"/>
  </radialGradient>
  <radialGradient id="c" cx="24.836" cy="36.119" r="19.696" gradientUnits="userSpaceOnUse">
   <stop stop-color="#777" offset="0"/>
   <stop offset="1"/>
  </radialGradient>
  <radialGradient id="a" cx="24.714" cy="38.571" r="19.714" gradientTransform="matrix(1 0 0 .33333 0 25.714)" gradientUnits="userSpaceOnUse">
   <stop offset="0"/>
   <stop stop-opacity="0" offset="1"/>
  </radialGradient>
 </defs>
 <path d="m44.429 38.571a19.714 6.5714 0 1 1 -39.429 0 19.714 6.5714 0 1 1 39.429 0z" fill="url(#a)" fill-rule="evenodd" opacity=".53165"/>
 <path transform="matrix(2.0831 0 0 2.0831 -40.547 -16.492)" d="m39.775 19.009a8.6621 8.6621 0 1 1 -17.324 0 8.6621 8.6621 0 1 1 17.324 0z" fill="url(#b)" fill-rule="evenodd" stroke="#9c8c0a" stroke-linecap="round" stroke-linejoin="round" stroke-width=".48004"/>
 <path transform="matrix(1.9798 0 0 1.9798 -37.331 -14.527)" d="m39.775 19.009a8.6621 8.6621 0 1 1 -17.324 0 8.6621 8.6621 0 1 1 17.324 0z" fill="none" opacity=".67722" stroke="#fff" stroke-linecap="round" stroke-linejoin="round" stroke-width=".50511"/>
 <path d="m37.285 24.72c-3.0165 5.2247-6.5435 8.99-12.822 8.99-6.1 0-10.566-4.3397-13.352-9.1668 2.5494 3.0559 6.2829 6.5663 13.087 6.5663 8.1302 0 9.5518-2.9069 13.087-6.3895z" fill="#fff" opacity=".36"/>
 <path d="m37.285 24.013c-3.0165 5.2247-6.5435 8.99-12.822 8.99-6.1 0-10.566-4.3397-13.352-9.1668 2.5494 3.0559 6.2829 6.5663 13.087 6.5663 8.1302 0 9.5518-2.9069 13.087-6.3895z" fill="url(#c)"/>
 <g transform="translate(.35355 2.3927)">
  <path d="m21.398 15.321c0 2.5-1.125 4.5-2.5 4.5s-2.625-2-2.625-4.5 1.125-4.5 2.5-4.5 2.5 2 2.5 4.5h0.125z" fill="#fff" opacity=".36"/>
  <path d="m30.689 15.321c0 2.5-1.125 4.5-2.5 4.5s-2.5-2-2.5-4.5 1.125-4.5 2.5-4.5 2.5 2 2.5 4.5z" fill="#fff" opacity=".36"/>
  <path d="m21.398 14.696c0 2.5-1.125 4.5-2.5 4.5s-2.5-2-2.5-4.5 1.125-4.5 2.5-4.5 2.5 2 2.5 4.5z"/>
  <path d="m30.689 14.696c0 2.5-1.125 4.5-2.5 4.5s-2.5-2-2.5-4.5 1.125-4.5 2.5-4.5 2.5 2 2.5 4.5z"/>
 </g>
</svg>
